<svg xmlns="http://www.w3.org/2000/svg" viewBox="0 0 32 32" fill="none">
  <path d="M16 4 C16 4 8 8 8 16 C8 20 10 23 13 25 L13 28 L19 28 L19 25 C22 23 24 20 24 16 C24 8 16 4 16 4Z" stroke="#4FC3F7" stroke-width="2" stroke-linecap="round" stroke-linejoin="round"/>
  <path d="M13 28 L13 30 C13 31 14 32 16 32 C18 32 19 31 19 30 L19 28" stroke="#4FC3F7" stroke-width="2" stroke-linecap="round" stroke-linejoin="round"/>
  <circle cx="14" cy="15" r="1.5" fill="#4FC3F7"/>
  <circle cx="18" cy="15" r="1.5" fill="#4FC3F7"/>
  <path d="M13 19 C13 19 14.5 21 16 21 C17.5 21 19 19 19 19" stroke="#4FC3F7" stroke-width="1.5" stroke-linecap="round"/>
</svg>
